<svg width="177" height="36" viewBox="0 0 177 36" fill="none" xmlns="http://www.w3.org/2000/svg">
<path d="M5.97175 14.104V22H1.85575V0.888H7.45575C9.78908 0.888 11.5904 1.41067 12.8598 2.456C14.1291 3.48267 14.7638 5.144 14.7638 7.44C14.7638 9.64267 14.1851 11.304 13.0278 12.424C11.8704 13.544 10.1998 14.104 8.01575 14.104H5.97175ZM5.97175 4.304V10.688H6.81175C8.13708 10.688 9.08908 10.464 9.66775 10.016C10.2651 9.568 10.5638 8.7 10.5638 7.412C10.5638 6.16133 10.2464 5.33067 9.61175 4.92C8.97708 4.50933 8.00642 4.304 6.69975 4.304H5.97175ZM26.0545 17.548H18.7185L16.9825 22H12.6425L20.8745 0.327999H24.0665L32.0745 22H27.6785L26.0545 17.548ZM24.9065 14.188L22.2745 6.516H22.2185L19.8945 14.188H24.9065ZM37.4444 0.888V18.416H43.2684V22H33.3284V0.888H37.4444ZM55.514 4.472H48.71V9.12H55.262V12.704H48.71V18.416H55.514V22H44.594V0.888H55.514V4.472ZM65.1259 4.472V22H61.0099V4.472H56.7539V0.888H69.3819V4.472H65.1259ZM77.7587 4.472V22H73.6427V4.472H69.3867V0.888H82.0147V4.472H77.7587ZM94.4515 4.472H87.6475V9.12H94.1995V12.704H87.6475V18.416H94.4515V22H83.5315V0.888H94.4515V4.472Z" fill="url(#paint0_linear_1_41)"/>
<path d="M115.475 6.66016C115.475 5.42969 115.087 4.5319 114.312 3.9668C113.538 3.39258 112.33 3.10547 110.689 3.10547H108.871V10.0098H110.689C112.367 10.0098 113.583 9.74544 114.34 9.2168C115.096 8.68815 115.475 7.83594 115.475 6.66016ZM118.893 22H116.035L109.568 12.0332H108.871V22H106.52V0.890625H110.908C113.16 0.890625 114.873 1.38281 116.049 2.36719C117.234 3.34245 117.826 4.74609 117.826 6.57812C117.826 8.20964 117.32 9.50391 116.309 10.4609C115.306 11.4089 113.911 11.9056 112.125 11.9512L118.893 22ZM123.883 22H121.531V0.890625H123.883V22ZM146.824 11.4453C146.824 8.97526 145.99 6.89714 144.322 5.21094C142.654 3.52474 140.585 2.68164 138.115 2.68164C135.499 2.68164 133.394 3.53841 131.799 5.25195C130.204 6.96549 129.406 9.02995 129.406 11.4453C129.406 13.9154 130.236 15.9935 131.895 17.6797C133.553 19.3659 135.627 20.209 138.115 20.209C140.576 20.209 142.641 19.3659 144.309 17.6797C145.986 15.9844 146.824 13.9062 146.824 11.4453ZM149.176 11.4453C149.176 14.5352 148.109 17.1374 145.977 19.252C143.844 21.3665 141.223 22.4238 138.115 22.4238C134.998 22.4238 132.373 21.3665 130.24 19.252C128.117 17.1283 127.055 14.526 127.055 11.4453C127.055 8.31901 128.107 5.70768 130.213 3.61133C132.327 1.51497 134.962 0.466797 138.115 0.466797C141.26 0.466797 143.889 1.51497 146.004 3.61133C148.118 5.70768 149.176 8.31901 149.176 11.4453ZM161.508 3.00977H156.518V22H154.166V3.00977H149.189V0.890625H161.508V3.00977ZM174.797 16.3672C174.797 18.2448 174.214 19.7259 173.047 20.8105C171.88 21.8861 170.285 22.4238 168.262 22.4238C166.867 22.4238 165.646 22.1048 164.598 21.4668C163.559 20.8288 162.802 19.9447 162.328 18.8145L164.01 17.3789C164.329 18.263 164.876 18.9557 165.65 19.457C166.434 19.9583 167.337 20.209 168.357 20.209C169.633 20.209 170.632 19.8809 171.352 19.2246C172.081 18.5684 172.445 17.6432 172.445 16.4492C172.445 15.4831 172.108 14.6445 171.434 13.9336C170.768 13.2135 169.647 12.4661 168.07 11.6914C166.202 10.7708 164.898 9.87305 164.16 8.99805C163.431 8.12305 163.066 7.01562 163.066 5.67578C163.066 4.11719 163.595 2.85938 164.652 1.90234C165.71 0.945312 167.109 0.466797 168.85 0.466797C169.907 0.466797 170.837 0.676432 171.639 1.0957C172.441 1.50586 173.12 2.12565 173.676 2.95508L172.076 4.44531C171.766 3.88932 171.315 3.45638 170.723 3.14648C170.139 2.83659 169.479 2.68164 168.74 2.68164C167.71 2.68164 166.899 2.94141 166.307 3.46094C165.714 3.98047 165.418 4.68229 165.418 5.56641C165.418 6.36849 165.641 7.04297 166.088 7.58984C166.544 8.13672 167.437 8.77018 168.768 9.49023L168.891 9.54492C172.828 11.6595 174.797 13.9336 174.797 16.3672Z" fill="black"/>
<path d="M6.18933 35.0909C5.78024 35.0909 5.42797 34.9943 5.13252 34.8011C4.83706 34.608 4.60979 34.3419 4.4507 34.0028C4.29161 33.6638 4.21206 33.2765 4.21206 32.8409C4.21206 32.3977 4.2935 32.0066 4.45638 31.6676C4.62115 31.3267 4.85032 31.0606 5.14388 30.8693C5.43933 30.6761 5.78403 30.5795 6.17797 30.5795C6.48479 30.5795 6.7613 30.6364 7.00752 30.75C7.25373 30.8636 7.45543 31.0227 7.61263 31.2273C7.76983 31.4318 7.86736 31.6705 7.90524 31.9432H7.23479C7.18365 31.7443 7.07002 31.5682 6.89388 31.4148C6.71964 31.2595 6.48479 31.1818 6.18933 31.1818C5.92797 31.1818 5.6988 31.25 5.50183 31.3864C5.30676 31.5208 5.1543 31.7112 5.04445 31.9574C4.93649 32.2017 4.88252 32.4886 4.88252 32.8182C4.88252 33.1553 4.93555 33.4489 5.04161 33.6989C5.14956 33.9489 5.30108 34.143 5.49615 34.2812C5.69312 34.4195 5.92418 34.4886 6.18933 34.4886C6.36358 34.4886 6.52172 34.4583 6.66377 34.3977C6.80581 34.3371 6.92608 34.25 7.02456 34.1364C7.12305 34.0227 7.19312 33.8864 7.23479 33.7273H7.90524C7.86736 33.9848 7.77361 34.2169 7.62399 34.4233C7.47627 34.6278 7.28024 34.7907 7.03593 34.9119C6.7935 35.0312 6.5113 35.0909 6.18933 35.0909ZM14.4981 35.0909C14.1041 35.0909 13.7585 34.9972 13.4612 34.8097C13.1657 34.6222 12.9346 34.3598 12.768 34.0227C12.6032 33.6856 12.5208 33.2917 12.5208 32.8409C12.5208 32.3864 12.6032 31.9896 12.768 31.6506C12.9346 31.3116 13.1657 31.0483 13.4612 30.8608C13.7585 30.6733 14.1041 30.5795 14.4981 30.5795C14.892 30.5795 15.2367 30.6733 15.5322 30.8608C15.8295 31.0483 16.0606 31.3116 16.2254 31.6506C16.392 31.9896 16.4754 32.3864 16.4754 32.8409C16.4754 33.2917 16.392 33.6856 16.2254 34.0227C16.0606 34.3598 15.8295 34.6222 15.5322 34.8097C15.2367 34.9972 14.892 35.0909 14.4981 35.0909ZM14.4981 34.4886C14.7973 34.4886 15.0435 34.4119 15.2367 34.2585C15.4299 34.1051 15.5729 33.9034 15.6657 33.6534C15.7585 33.4034 15.8049 33.1326 15.8049 32.8409C15.8049 32.5492 15.7585 32.2775 15.6657 32.0256C15.5729 31.7737 15.4299 31.5701 15.2367 31.4148C15.0435 31.2595 14.7973 31.1818 14.4981 31.1818C14.1988 31.1818 13.9526 31.2595 13.7594 31.4148C13.5663 31.5701 13.4233 31.7737 13.3305 32.0256C13.2377 32.2775 13.1913 32.5492 13.1913 32.8409C13.1913 33.1326 13.2377 33.4034 13.3305 33.6534C13.4233 33.9034 13.5663 34.1051 13.7594 34.2585C13.9526 34.4119 14.1988 34.4886 14.4981 34.4886ZM22.0092 32.375V35H21.3388V30.6364H21.9865V31.3182H22.0433C22.1456 31.0966 22.3009 30.9186 22.5092 30.7841C22.7176 30.6477 22.9865 30.5795 23.3161 30.5795C23.6115 30.5795 23.87 30.6402 24.0916 30.7614C24.3132 30.8807 24.4856 31.0625 24.6087 31.3068C24.7318 31.5492 24.7933 31.8561 24.7933 32.2273V35H24.1229V32.2727C24.1229 31.9299 24.0339 31.6629 23.8558 31.4716C23.6778 31.2784 23.4335 31.1818 23.1229 31.1818C22.9089 31.1818 22.7176 31.2282 22.549 31.321C22.3824 31.4138 22.2507 31.5492 22.1541 31.7273C22.0575 31.9053 22.0092 32.1212 22.0092 32.375ZM31.6312 35.0909C31.2221 35.0909 30.8698 34.9943 30.5744 34.8011C30.2789 34.608 30.0517 34.3419 29.8926 34.0028C29.7335 33.6638 29.6539 33.2765 29.6539 32.8409C29.6539 32.3977 29.7354 32.0066 29.8983 31.6676C30.063 31.3267 30.2922 31.0606 30.5858 30.8693C30.8812 30.6761 31.2259 30.5795 31.6198 30.5795C31.9267 30.5795 32.2032 30.6364 32.4494 30.75C32.6956 30.8636 32.8973 31.0227 33.0545 31.2273C33.2117 31.4318 33.3092 31.6705 33.3471 31.9432H32.6767C32.6255 31.7443 32.5119 31.5682 32.3358 31.4148C32.1615 31.2595 31.9267 31.1818 31.6312 31.1818C31.3698 31.1818 31.1407 31.25 30.9437 31.3864C30.7486 31.5208 30.5962 31.7112 30.4863 31.9574C30.3784 32.2017 30.3244 32.4886 30.3244 32.8182C30.3244 33.1553 30.3774 33.4489 30.4835 33.6989C30.5914 33.9489 30.743 34.143 30.938 34.2812C31.135 34.4195 31.3661 34.4886 31.6312 34.4886C31.8055 34.4886 31.9636 34.4583 32.1056 34.3977C32.2477 34.3371 32.368 34.25 32.4664 34.1364C32.5649 34.0227 32.635 33.8864 32.6767 33.7273H33.3471C33.3092 33.9848 33.2155 34.2169 33.0659 34.4233C32.9181 34.6278 32.7221 34.7907 32.4778 34.9119C32.2354 35.0312 31.9532 35.0909 31.6312 35.0909ZM39.9968 35.0909C39.5763 35.0909 39.2136 34.9981 38.9087 34.8125C38.6057 34.625 38.3718 34.3636 38.207 34.0284C38.0441 33.6913 37.9627 33.2992 37.9627 32.8523C37.9627 32.4053 38.0441 32.0114 38.207 31.6705C38.3718 31.3277 38.6009 31.0606 38.8945 30.8693C39.19 30.6761 39.5347 30.5795 39.9286 30.5795C40.1559 30.5795 40.3803 30.6174 40.6019 30.6932C40.8235 30.7689 41.0252 30.892 41.207 31.0625C41.3888 31.2311 41.5337 31.4545 41.6417 31.733C41.7496 32.0114 41.8036 32.3542 41.8036 32.7614V33.0455H38.44V32.4659H41.1218C41.1218 32.2197 41.0725 32 40.9741 31.8068C40.8775 31.6136 40.7392 31.4612 40.5593 31.3494C40.3812 31.2377 40.171 31.1818 39.9286 31.1818C39.6616 31.1818 39.4305 31.2481 39.2354 31.3807C39.0422 31.5114 38.8936 31.6818 38.7894 31.892C38.6852 32.1023 38.6331 32.3277 38.6331 32.5682V32.9545C38.6331 33.2841 38.69 33.5634 38.8036 33.7926C38.9191 34.0199 39.0792 34.1932 39.2837 34.3125C39.4883 34.4299 39.7259 34.4886 39.9968 34.4886C40.1729 34.4886 40.332 34.464 40.4741 34.4148C40.618 34.3636 40.742 34.2879 40.8462 34.1875C40.9504 34.0852 41.0309 33.9583 41.0877 33.8068L41.7354 33.9886C41.6672 34.2083 41.5526 34.4015 41.3917 34.5682C41.2307 34.733 41.0318 34.8617 40.7951 34.9545C40.5583 35.0455 40.2922 35.0909 39.9968 35.0909ZM50.0989 30.6364L48.4852 35H47.8034L46.1898 30.6364H46.917L48.1216 34.1136H48.167L49.3716 30.6364H50.0989ZM56.4403 35.0909C56.0463 35.0909 55.7007 34.9972 55.4033 34.8097C55.1079 34.6222 54.8768 34.3598 54.7102 34.0227C54.5454 33.6856 54.463 33.2917 54.463 32.8409C54.463 32.3864 54.5454 31.9896 54.7102 31.6506C54.8768 31.3116 55.1079 31.0483 55.4033 30.8608C55.7007 30.6733 56.0463 30.5795 56.4403 30.5795C56.8342 30.5795 57.1789 30.6733 57.4744 30.8608C57.7717 31.0483 58.0028 31.3116 58.1675 31.6506C58.3342 31.9896 58.4175 32.3864 58.4175 32.8409C58.4175 33.2917 58.3342 33.6856 58.1675 34.0227C58.0028 34.3598 57.7717 34.6222 57.4744 34.8097C57.1789 34.9972 56.8342 35.0909 56.4403 35.0909ZM56.4403 34.4886C56.7395 34.4886 56.9857 34.4119 57.1789 34.2585C57.3721 34.1051 57.5151 33.9034 57.6079 33.6534C57.7007 33.4034 57.7471 33.1326 57.7471 32.8409C57.7471 32.5492 57.7007 32.2775 57.6079 32.0256C57.5151 31.7737 57.3721 31.5701 57.1789 31.4148C56.9857 31.2595 56.7395 31.1818 56.4403 31.1818C56.141 31.1818 55.8948 31.2595 55.7016 31.4148C55.5085 31.5701 55.3655 31.7737 55.2727 32.0256C55.1799 32.2775 55.1335 32.5492 55.1335 32.8409C55.1335 33.1326 55.1799 33.4034 55.2727 33.6534C55.3655 33.9034 55.5085 34.1051 55.7016 34.2585C55.8948 34.4119 56.141 34.4886 56.4403 34.4886ZM63.281 35V30.6364H63.9514V35H63.281ZM63.6219 29.9091C63.4912 29.9091 63.3785 29.8646 63.2838 29.7756C63.191 29.6866 63.1446 29.5795 63.1446 29.4545C63.1446 29.3295 63.191 29.2225 63.2838 29.1335C63.3785 29.0445 63.4912 29 63.6219 29C63.7526 29 63.8643 29.0445 63.9571 29.1335C64.0518 29.2225 64.0992 29.3295 64.0992 29.4545C64.0992 29.5795 64.0518 29.6866 63.9571 29.7756C63.8643 29.8646 63.7526 29.9091 63.6219 29.9091ZM69.0194 35V30.6364H69.6671V31.2955H69.7126C69.7921 31.0795 69.9361 30.9044 70.1444 30.7699C70.3528 30.6354 70.5876 30.5682 70.849 30.5682C70.8982 30.5682 70.9598 30.5691 71.0336 30.571C71.1075 30.5729 71.1634 30.5758 71.2012 30.5795V31.2614C71.1785 31.2557 71.1264 31.2472 71.045 31.2358C70.9654 31.2225 70.8812 31.2159 70.7921 31.2159C70.58 31.2159 70.3906 31.2604 70.224 31.3494C70.0592 31.4366 69.9285 31.5578 69.8319 31.7131C69.7372 31.8665 69.6899 32.0417 69.6899 32.2386V35H69.0194ZM82.5964 29.1818V35H81.926V29.1818H82.5964ZM93.5271 31V30.4886C93.5271 30.3333 93.5546 30.1686 93.6095 29.9943C93.6664 29.8182 93.7478 29.6487 93.8539 29.4858C93.9618 29.321 94.0915 29.178 94.2431 29.0568L94.6067 29.3523C94.4874 29.5227 94.3832 29.7008 94.2942 29.8864C94.2071 30.0701 94.1635 30.267 94.1635 30.4773V31H93.5271ZM101.018 35.0909C100.597 35.0909 100.235 34.9981 99.9296 34.8125C99.6266 34.625 99.3927 34.3636 99.2279 34.0284C99.0651 33.6913 98.9836 33.2992 98.9836 32.8523C98.9836 32.4053 99.0651 32.0114 99.2279 31.6705C99.3927 31.3277 99.6219 31.0606 99.9154 30.8693C100.211 30.6761 100.556 30.5795 100.95 30.5795C101.177 30.5795 101.401 30.6174 101.623 30.6932C101.844 30.7689 102.046 30.892 102.228 31.0625C102.41 31.2311 102.555 31.4545 102.663 31.733C102.771 32.0114 102.825 32.3542 102.825 32.7614V33.0455H99.4609V32.4659H102.143C102.143 32.2197 102.093 32 101.995 31.8068C101.898 31.6136 101.76 31.4612 101.58 31.3494C101.402 31.2377 101.192 31.1818 100.95 31.1818C100.682 31.1818 100.451 31.2481 100.256 31.3807C100.063 31.5114 99.9145 31.6818 99.8103 31.892C99.7062 32.1023 99.6541 32.3277 99.6541 32.5682V32.9545C99.6541 33.2841 99.7109 33.5634 99.8245 33.7926C99.9401 34.0199 100.1 34.1932 100.305 34.3125C100.509 34.4299 100.747 34.4886 101.018 34.4886C101.194 34.4886 101.353 34.464 101.495 34.4148C101.639 34.3636 101.763 34.2879 101.867 34.1875C101.971 34.0852 102.052 33.9583 102.109 33.8068L102.756 33.9886C102.688 34.2083 102.574 34.4015 102.413 34.5682C102.252 34.733 102.053 34.8617 101.816 34.9545C101.579 35.0455 101.313 35.0909 101.018 35.0909ZM108.067 30.6364L109.113 32.4205L110.158 30.6364H110.931L109.522 32.8182L110.931 35H110.158L109.113 33.3068L108.067 35H107.295L108.681 32.8182L107.295 30.6364H108.067ZM117.321 35.0909C116.911 35.0909 116.559 34.9943 116.264 34.8011C115.968 34.608 115.741 34.3419 115.582 34.0028C115.423 33.6638 115.343 33.2765 115.343 32.8409C115.343 32.3977 115.425 32.0066 115.588 31.6676C115.752 31.3267 115.982 31.0606 116.275 30.8693C116.571 30.6761 116.915 30.5795 117.309 30.5795C117.616 30.5795 117.893 30.6364 118.139 30.75C118.385 30.8636 118.587 31.0227 118.744 31.2273C118.901 31.4318 118.999 31.6705 119.036 31.9432H118.366C118.315 31.7443 118.201 31.5682 118.025 31.4148C117.851 31.2595 117.616 31.1818 117.321 31.1818C117.059 31.1818 116.83 31.25 116.633 31.3864C116.438 31.5208 116.286 31.7112 116.176 31.9574C116.068 32.2017 116.014 32.4886 116.014 32.8182C116.014 33.1553 116.067 33.4489 116.173 33.6989C116.281 33.9489 116.432 34.143 116.627 34.2812C116.824 34.4195 117.055 34.4886 117.321 34.4886C117.495 34.4886 117.653 34.4583 117.795 34.3977C117.937 34.3371 118.057 34.25 118.156 34.1364C118.254 34.0227 118.324 33.8864 118.366 33.7273H119.036C118.999 33.9848 118.905 34.2169 118.755 34.4233C118.608 34.6278 118.411 34.7907 118.167 34.9119C117.925 35.0312 117.643 35.0909 117.321 35.0909ZM125.686 35.0909C125.266 35.0909 124.903 34.9981 124.598 34.8125C124.295 34.625 124.061 34.3636 123.896 34.0284C123.734 33.6913 123.652 33.2992 123.652 32.8523C123.652 32.4053 123.734 32.0114 123.896 31.6705C124.061 31.3277 124.29 31.0606 124.584 30.8693C124.879 30.6761 125.224 30.5795 125.618 30.5795C125.845 30.5795 126.07 30.6174 126.291 30.6932C126.513 30.7689 126.715 30.892 126.896 31.0625C127.078 31.2311 127.223 31.4545 127.331 31.733C127.439 32.0114 127.493 32.3542 127.493 32.7614V33.0455H124.129V32.4659H126.811C126.811 32.2197 126.762 32 126.663 31.8068C126.567 31.6136 126.429 31.4612 126.249 31.3494C126.071 31.2377 125.86 31.1818 125.618 31.1818C125.351 31.1818 125.12 31.2481 124.925 31.3807C124.732 31.5114 124.583 31.6818 124.479 31.892C124.375 32.1023 124.323 32.3277 124.323 32.5682V32.9545C124.323 33.2841 124.379 33.5634 124.493 33.7926C124.609 34.0199 124.769 34.1932 124.973 34.3125C125.178 34.4299 125.415 34.4886 125.686 34.4886C125.862 34.4886 126.021 34.464 126.163 34.4148C126.307 34.3636 126.431 34.2879 126.536 34.1875C126.64 34.0852 126.72 33.9583 126.777 33.8068L127.425 33.9886C127.357 34.2083 127.242 34.4015 127.081 34.5682C126.92 34.733 126.721 34.8617 126.484 34.9545C126.248 35.0455 125.982 35.0909 125.686 35.0909ZM133.023 29.1818V35H132.353V29.1818H133.023ZM138.762 29.1818V35H138.091V29.1818H138.762ZM145.659 35.0909C145.239 35.0909 144.876 34.9981 144.571 34.8125C144.268 34.625 144.034 34.3636 143.87 34.0284C143.707 33.6913 143.625 33.2992 143.625 32.8523C143.625 32.4053 143.707 32.0114 143.87 31.6705C144.034 31.3277 144.263 31.0606 144.557 30.8693C144.852 30.6761 145.197 30.5795 145.591 30.5795C145.818 30.5795 146.043 30.6174 146.264 30.6932C146.486 30.7689 146.688 30.892 146.87 31.0625C147.051 31.2311 147.196 31.4545 147.304 31.733C147.412 32.0114 147.466 32.3542 147.466 32.7614V33.0455H144.102V32.4659H146.784C146.784 32.2197 146.735 32 146.637 31.8068C146.54 31.6136 146.402 31.4612 146.222 31.3494C146.044 31.2377 145.834 31.1818 145.591 31.1818C145.324 31.1818 145.093 31.2481 144.898 31.3807C144.705 31.5114 144.556 31.6818 144.452 31.892C144.348 32.1023 144.296 32.3277 144.296 32.5682V32.9545C144.296 33.2841 144.352 33.5634 144.466 33.7926C144.582 34.0199 144.742 34.1932 144.946 34.3125C145.151 34.4299 145.388 34.4886 145.659 34.4886C145.835 34.4886 145.995 34.464 146.137 34.4148C146.28 34.3636 146.405 34.2879 146.509 34.1875C146.613 34.0852 146.693 33.9583 146.75 33.8068L147.398 33.9886C147.33 34.2083 147.215 34.4015 147.054 34.5682C146.893 34.733 146.694 34.8617 146.458 34.9545C146.221 35.0455 145.955 35.0909 145.659 35.0909ZM152.996 32.375V35H152.326V30.6364H152.974V31.3182H153.031C153.133 31.0966 153.288 30.9186 153.496 30.7841C153.705 30.6477 153.974 30.5795 154.303 30.5795C154.599 30.5795 154.857 30.6402 155.079 30.7614C155.3 30.8807 155.473 31.0625 155.596 31.3068C155.719 31.5492 155.781 31.8561 155.781 32.2273V35H155.11V32.2727C155.11 31.9299 155.021 31.6629 154.843 31.4716C154.665 31.2784 154.421 31.1818 154.11 31.1818C153.896 31.1818 153.705 31.2282 153.536 31.321C153.37 31.4138 153.238 31.5492 153.141 31.7273C153.045 31.9053 152.996 32.1212 152.996 32.375ZM162.618 35.0909C162.209 35.0909 161.857 34.9943 161.562 34.8011C161.266 34.608 161.039 34.3419 160.88 34.0028C160.721 33.6638 160.641 33.2765 160.641 32.8409C160.641 32.3977 160.723 32.0066 160.885 31.6676C161.05 31.3267 161.279 31.0606 161.573 30.8693C161.868 30.6761 162.213 30.5795 162.607 30.5795C162.914 30.5795 163.19 30.6364 163.437 30.75C163.683 30.8636 163.884 31.0227 164.042 31.2273C164.199 31.4318 164.296 31.6705 164.334 31.9432H163.664C163.613 31.7443 163.499 31.5682 163.323 31.4148C163.149 31.2595 162.914 31.1818 162.618 31.1818C162.357 31.1818 162.128 31.25 161.931 31.3864C161.736 31.5208 161.583 31.7112 161.474 31.9574C161.366 32.2017 161.312 32.4886 161.312 32.8182C161.312 33.1553 161.365 33.4489 161.471 33.6989C161.579 33.9489 161.73 34.143 161.925 34.2812C162.122 34.4195 162.353 34.4886 162.618 34.4886C162.793 34.4886 162.951 34.4583 163.093 34.3977C163.235 34.3371 163.355 34.25 163.454 34.1364C163.552 34.0227 163.622 33.8864 163.664 33.7273H164.334C164.296 33.9848 164.203 34.2169 164.053 34.4233C163.905 34.6278 163.709 34.7907 163.465 34.9119C163.223 35.0312 162.94 35.0909 162.618 35.0909ZM170.984 35.0909C170.563 35.0909 170.201 34.9981 169.896 34.8125C169.593 34.625 169.359 34.3636 169.194 34.0284C169.031 33.6913 168.95 33.2992 168.95 32.8523C168.95 32.4053 169.031 32.0114 169.194 31.6705C169.359 31.3277 169.588 31.0606 169.882 30.8693C170.177 30.6761 170.522 30.5795 170.916 30.5795C171.143 30.5795 171.367 30.6174 171.589 30.6932C171.811 30.7689 172.012 30.892 172.194 31.0625C172.376 31.2311 172.521 31.4545 172.629 31.733C172.737 32.0114 172.791 32.3542 172.791 32.7614V33.0455H169.427V32.4659H172.109C172.109 32.2197 172.06 32 171.961 31.8068C171.865 31.6136 171.726 31.4612 171.546 31.3494C171.368 31.2377 171.158 31.1818 170.916 31.1818C170.649 31.1818 170.418 31.2481 170.223 31.3807C170.029 31.5114 169.881 31.6818 169.777 31.892C169.672 32.1023 169.62 32.3277 169.62 32.5682V32.9545C169.62 33.2841 169.677 33.5634 169.791 33.7926C169.906 34.0199 170.066 34.1932 170.271 34.3125C170.475 34.4299 170.713 34.4886 170.984 34.4886C171.16 34.4886 171.319 34.464 171.461 34.4148C171.605 34.3636 171.729 34.2879 171.833 34.1875C171.938 34.0852 172.018 33.9583 172.075 33.8068L172.723 33.9886C172.654 34.2083 172.54 34.4015 172.379 34.5682C172.218 34.733 172.019 34.8617 171.782 34.9545C171.546 35.0455 171.279 35.0909 170.984 35.0909Z" fill="black"/>
<defs>
<linearGradient id="paint0_linear_1_41" x1="-3.39037e-09" y1="11.5" x2="103.89" y2="12.3755" gradientUnits="userSpaceOnUse">
<stop stop-color="#12C2E9"/>
<stop offset="0.5" stop-color="#C471ED"/>
<stop offset="1" stop-color="#F64F59"/>
</linearGradient>
</defs>
</svg>
