<svg width="531" height="403" viewBox="0 0 531 403" fill="none" xmlns="http://www.w3.org/2000/svg">
<path d="M48.3055 387.368C48.3055 387.368 10.9666 299.473 58.1895 233.049C105.412 166.624 76.6111 107.741 159.525 49.1182C266.097 -26.2309 368.891 48.1121 399.545 98.5166C430.198 148.921 534.314 123.191 504.056 266.613C480.583 377.869 498.098 382.75 498.098 382.75L48.3055 387.368Z" fill="#F1EEFD"/>
<path d="M70.8029 363.591C70.8029 363.591 4.53945 328.972 20.5058 251.129C36.4721 173.286 101.498 154.814 128.24 160.528C178.362 171.239 96.4727 202.842 76.9114 148.599C52.3676 80.5403 139.879 29.0121 221.001 42.3473C273.137 50.918 298.303 75.8753 344.648 91.5572C390.827 107.183 410.195 86.2549 391.796 74.1257C374.332 62.6109 310.921 81.3968 332.693 107.144C362.505 142.399 434.351 87.7772 490.033 148.599C545.716 209.421 497.376 285.886 454.569 292.263C411.761 298.638 430.531 237.192 497.376 285.887C564.222 334.582 479.786 387.371 479.786 387.371" stroke="#C3C8FF" stroke-miterlimit="10"/>
<path d="M525.805 392.238H19.2765C16.5871 392.238 14.4082 390.058 14.4082 387.37C14.4082 384.681 16.5883 382.502 19.2765 382.502H530.673V387.37C530.673 390.058 528.493 392.238 525.805 392.238Z" fill="#6876EB"/>
<path d="M201.305 392.238H19.2765C16.5871 392.238 14.4082 390.058 14.4082 387.37V382.502H206.174V387.37C206.174 390.058 203.994 392.238 201.305 392.238Z" fill="#1C145E"/>
<path d="M276.975 196.898C255.284 238.581 230.912 255.562 230.912 255.562L251.96 289.167L288.715 250.972L276.975 196.898Z" fill="#1C145E"/>
<path d="M330.758 186.949L276.975 196.898C273.569 298.654 272.292 382.488 272.292 382.488H368.83C368.83 382.488 371.631 226.67 356.101 192.673L330.758 186.949Z" fill="#1C145E"/>
<path d="M324.514 238.804L350.716 236.587" stroke="#6876EB" stroke-width="4" stroke-miterlimit="10"/>
<path d="M312.486 216.935C312.486 216.935 329.117 330.423 314.647 376.343" stroke="#6876EB" stroke-miterlimit="10"/>
<path d="M295.073 273.782C295.073 273.782 311.136 280.248 331.962 280.932C352.787 281.616 339.83 292.697 308.957 290.596" stroke="#6876EB" stroke-miterlimit="10"/>
<path d="M299.212 182.811L312.486 218.076L330.758 186.949L318.715 167.269L299.212 182.811Z" fill="#E9A394"/>
<path d="M312.486 218.076L337.264 211.236L330.758 186.949L312.486 218.076Z" fill="#6876EB"/>
<path d="M302.162 190.648L288.715 205.668L312.486 218.077L302.162 190.648Z" fill="#6876EB"/>
<path d="M251.96 289.167C251.96 289.167 259.814 272.79 242.951 251.696C233.6 239.998 229.292 219.813 229.292 219.813L215.243 221.95L228.107 289.168H251.96V289.167Z" fill="#E9A394"/>
<path d="M212.37 198.738L206.618 203.966L214.308 210.754L190.228 210.344L189.712 218.606L215.241 221.95L229.291 219.813L212.37 198.738Z" fill="#E9A394"/>
<path d="M216.579 211.606L193.475 202.076L191.983 206.18L211.267 214.284L216.579 211.606Z" fill="#E9A394"/>
<path d="M356.103 192.673C356.103 192.673 387.139 210.344 396.939 276.537L360.932 285.225L356.103 192.673Z" fill="#1C145E"/>
<path d="M288.697 139.717L276.976 169.71L285.939 172.468L288.697 189.362L317.313 182.811L321.45 136.959L288.697 139.717Z" fill="#E9A394"/>
<path d="M307.795 146.844H285.912L288.298 140.378L307.795 139.172V146.844Z" fill="#E37A82"/>
<path d="M319.23 160.528C319.23 160.528 305.269 157.64 305.269 143.197C305.269 143.197 284.554 146.016 277.403 134.772C268.932 121.453 281.877 106.147 292.567 109.256C292.567 109.256 285.831 115.934 296.062 116.718C303.358 117.278 316.691 107.571 321.451 116.959C321.451 116.959 358.175 125.347 330.759 159.565L319.23 160.528Z" fill="#16005C"/>
<path d="M305.267 142.055C305.267 142.055 277.577 147.405 271.786 127.548C268.4 115.939 280.036 109.328 280.036 109.328" stroke="#16005C" stroke-width="2" stroke-miterlimit="10"/>
<path d="M293.55 168.755C299.323 168.755 304.003 164.075 304.003 158.302C304.003 152.529 299.323 147.849 293.55 147.849C287.778 147.849 283.098 152.529 283.098 158.302C283.098 164.075 287.778 168.755 293.55 168.755Z" stroke="#16005C" stroke-width="0.5" stroke-miterlimit="10"/>
<path d="M303.441 154.919L318.329 155.735" stroke="#16005C" stroke-width="0.5" stroke-miterlimit="10"/>
<path d="M337.264 163.16C337.264 169.634 328.59 174.881 322.116 174.881C315.642 174.881 313.821 169.633 313.821 163.16C313.821 156.687 319.069 151.438 325.542 151.438C332.015 151.438 337.264 156.687 337.264 163.16Z" fill="#E9A394"/>
<path d="M392.642 277.572V331.625H365.69L363.447 284.617L392.642 277.572Z" fill="#E9A394"/>
<path d="M274.876 265.353L276.008 227.69L258.549 282.321L274.876 265.353Z" fill="#1C145C"/>
<path d="M300.6 186.399L317.313 182.812L303.612 194.498L300.6 186.399Z" fill="#E37A82"/>
<path d="M290.716 163.16C291.821 163.16 292.717 161.292 292.717 158.987C292.717 156.682 291.821 154.814 290.716 154.814C289.611 154.814 288.715 156.682 288.715 158.987C288.715 161.292 289.611 163.16 290.716 163.16Z" fill="#16005C"/>
<path d="M296.15 148.838C296.15 143.247 291.698 147.011 291.698 147.011L296.15 148.838Z" fill="#16005C"/>
<path d="M291.697 173.592L298.064 171.897C298.064 171.897 300.792 195.512 291.697 173.592Z" fill="white"/>
<path d="M154.5 279.437C154.5 279.437 197.454 272.791 198.297 347.695C198.435 359.85 206.174 382.501 206.174 382.501H167.247L154.5 279.437Z" fill="#5321D7"/>
<path d="M109.586 272.791L83.6245 278.919L91.5454 382.501H192.558C192.558 382.501 189.169 300.547 151.077 275.961L109.586 272.791Z" fill="#6A3FDC"/>
<path d="M83.6247 278.919C56.8665 285.022 63.1304 305.559 68.2968 347.733C54.9411 358.58 67.7544 363.462 67.7544 363.462C53.0865 379.01 71.3848 382.5 71.3848 382.5H120.233C120.233 382.5 110.401 272.811 83.6247 278.919Z" fill="#6A3FDC"/>
<path d="M117.328 358.577L105.605 304.766" stroke="#5321D7" stroke-miterlimit="10"/>
<path d="M71.3838 382.501C71.3838 382.501 79.6313 363.565 105.697 354.045C127.31 346.153 158.924 366.642 179.161 347.173L182.909 369.092L120.232 382.501H71.3838Z" fill="#E9A394"/>
<path d="M157.31 219.444L176.635 248.859L164.234 253.286L162.09 277.191L124.822 264.243L128.334 215.618L157.31 219.444Z" fill="#E9A394"/>
<path d="M128.636 250.343L109.586 272.791L134.016 302.73L145.034 267.761L128.636 250.343Z" fill="#E37A82"/>
<path d="M135.006 236.443L162.265 226.987L157.31 219.444L130.382 222.246L135.006 236.443Z" fill="#E37A82"/>
<path d="M132.652 246.748C132.652 246.748 140.905 263.271 135.163 231.42C135.163 231.42 142.995 232.299 149.129 221.963C149.129 221.963 147.223 238.806 165.215 221.963C183.207 205.118 160.334 191.94 132.385 196.898C108.159 201.197 83.9171 214.884 119.349 261.286L132.652 246.748Z" fill="#16005C"/>
<path d="M128.239 253.317C126.38 255.81 123.186 258.073 119.865 258.557C113.223 259.524 106.737 254.281 105.769 247.639C104.802 240.998 108.157 237.549 114.798 236.581C118.531 236.038 122.854 237.144 126.096 239.398C127.076 240.618 128.239 253.317 128.239 253.317Z" fill="#E9A394"/>
<path d="M154.531 244.136C155.525 243.866 155.832 241.808 155.216 239.538C154.6 237.268 153.295 235.647 152.3 235.917C151.305 236.186 150.998 238.245 151.614 240.515C152.23 242.785 153.536 244.406 154.531 244.136Z" fill="#16005C"/>
<path d="M146.975 234.252C146.975 234.252 146.006 228.79 151.077 231.42L146.975 234.252Z" fill="#16005C"/>
<path d="M106.536 273.709L110.959 268.629L109.336 264.864L119.348 261.288L148.07 275.732L149.128 286.76L144.267 285.224L136.333 314.799L106.536 273.709Z" fill="#6A3FDC"/>
<path d="M132.472 280.931L149.128 286.76L148.07 275.731" stroke="#5321D7" stroke-miterlimit="10"/>
<path d="M135.163 231.42C135.163 231.42 138.514 250.92 143.414 254.93C145.023 256.247 148.069 252.897 162.09 252.616C170.663 252.445 170.656 282.37 159.28 281.512C147.903 280.655 130.614 273.562 128.023 251.75C125.752 232.614 135.163 231.42 135.163 231.42Z" fill="#16005C"/>
<path d="M149.127 258.557C149.127 258.557 152.019 263.941 157.718 260.294" stroke="#C4C6C5" stroke-miterlimit="10"/>
<path d="M214.143 370.185H118.251V377.29C118.251 380.167 120.585 382.499 123.461 382.499H214.143C217.021 382.499 219.353 380.166 219.353 377.29V375.395C219.354 372.518 217.021 370.185 214.143 370.185Z" fill="#1C145E"/>
<path d="M292.022 298.964H180.476C177.161 298.964 174.362 301.429 173.941 304.717L164.955 375.079C164.452 379.016 167.52 382.501 171.489 382.501H283.035C286.351 382.501 289.15 380.036 289.57 376.748L298.556 306.386C299.059 302.449 295.991 298.964 292.022 298.964Z" fill="#1C145E"/>
<path d="M297.42 298.964H185.874C182.559 298.964 179.76 301.429 179.34 304.717L170.353 375.079C169.851 379.016 172.918 382.501 176.888 382.501H288.434C291.749 382.501 294.548 380.036 294.968 376.748L303.955 306.386C304.457 302.449 301.39 298.964 297.42 298.964Z" fill="#6876EB"/>
<path d="M244.332 348.293C248.977 343.885 249.526 336.922 245.558 332.74C241.59 328.559 234.608 328.742 229.963 333.149C225.318 337.557 224.769 344.52 228.737 348.702C232.704 352.883 239.687 352.7 244.332 348.293Z" fill="white"/>
<path d="M294.988 381.904H156.142" stroke="#1C145E" stroke-miterlimit="10"/>
<path d="M356.35 287.742L402.442 288.615L391.992 232.231L367.484 235.007C367.484 235.007 356.444 251.301 365.162 263.97C374.998 278.264 355.337 278.798 356.35 287.742Z" fill="#16005C"/>
<path d="M367.483 235.007C367.483 235.007 356.443 251.301 365.161 263.97C374.998 278.266 355.337 278.798 356.35 287.742" stroke="#7079F1" stroke-width="2" stroke-miterlimit="10"/>
<path d="M376.678 280.931C376.678 280.931 355.706 301.51 344.648 379.062H367.993L376.678 280.931Z" fill="#7079F1"/>
<path d="M432.104 275.198L422.977 379.062H355.174L363.615 339.393C363.615 339.393 337.801 325.926 376.678 280.931L386.341 275.961L428.321 272.791L432.104 275.198Z" fill="#C3C8FF"/>
<path d="M376.678 327.415C376.678 327.415 372.614 334.377 376.522 339.966L370.767 379.062" stroke="#7079F1" stroke-miterlimit="10"/>
<path d="M367.202 339.573L406.474 340.732" stroke="#7079F1" stroke-miterlimit="10"/>
<path d="M414.217 359.124L410.063 309.167" stroke="#7079F1" stroke-miterlimit="10"/>
<path d="M432.104 275.198C432.104 275.198 435.849 279.909 440.184 290.832C446.33 306.321 453.66 334.304 453.18 379.061H422.977L432.104 275.198Z" fill="#C3C8FF"/>
<path d="M453.18 382.488C453.18 382.488 438.089 347.977 400.133 357.853C358.688 368.637 343.299 366.621 343.299 366.621L340.157 382.488H453.18Z" fill="#E9A394"/>
<path d="M413.673 350.6L400.206 353.611L430.796 382.488H459.631C459.631 382.488 447.203 352.355 413.673 350.6Z" fill="#7079F1"/>
<path d="M414.506 359.557L420.92 357.597" stroke="#C3C8FF" stroke-miterlimit="10"/>
<path d="M343.299 366.621L323.606 362.55L309.49 382.488H340.157L343.299 366.621Z" fill="#E9A394"/>
<path d="M376.678 327.415L413.272 290.821L406.474 287.611L432.104 275.198L420.335 267.709H392.943L376.678 288.039L381.172 289.167L376.678 292.319V327.415Z" fill="#7079F1"/>
<path d="M402.262 280.149L414.217 271.887L401.312 243.032L381.31 255.596L386.945 279.531L376.678 327.415L402.262 280.149Z" fill="#E9A394"/>
<path d="M382.919 262.432L396.957 255.112L384.425 268.822L382.919 262.432Z" fill="#E37A82"/>
<path d="M357.276 220.657L351.146 254.627H360.341L370.664 268.822L396.957 255.111L378.568 214.14L357.276 220.657Z" fill="#E9A394"/>
<path d="M355.79 228.895L355.174 232.627L379.422 229.318L379.051 224.671L355.79 228.895Z" fill="#E37A82"/>
<path d="M424.296 218.076C418.226 201.623 410.804 195.279 410.804 195.279C395.93 180.498 370.503 196.899 370.503 196.899C337.92 189.013 351.146 229.466 351.146 229.466L377.682 226.211C381.392 248.471 394.661 237.199 394.661 237.199L400.85 248.361C400.85 248.361 394.606 253.879 401.116 263.34C406.475 271.129 393.641 273.783 396.958 282.075L448.248 271.444C448.248 237.696 435.266 247.814 424.296 218.076Z" fill="#16005C"/>
<path d="M349.067 229.727C349.067 229.727 344.374 206.63 352.994 199.115C357.489 195.195 371.644 196.899 371.644 196.899" stroke="#7079F1" stroke-width="2" stroke-miterlimit="10"/>
<path d="M451.606 270.471C451.606 270.471 455.702 255.111 433.384 237.695" stroke="#16005C" stroke-width="2" stroke-miterlimit="10"/>
<path d="M395.424 249.789C401.526 249.789 406.473 244.842 406.473 238.74C406.473 232.638 401.526 227.691 395.424 227.691C389.322 227.691 384.375 232.638 384.375 238.74C384.375 244.842 389.322 249.789 395.424 249.789Z" fill="#E9A394"/>
<path d="M367.202 253.378L374.051 251.696C374.051 251.696 376.455 271.232 367.202 253.378Z" fill="white"/>
<path d="M361.498 241.833C361.498 241.833 363.678 228.546 368.448 241.833" stroke="#1C145E" stroke-width="0.5" stroke-miterlimit="10"/>
<path d="M363.181 231.726C363.181 231.726 365.836 227.228 368.982 231.726H363.181Z" fill="#16005C"/>
<path d="M260.112 112.02C256.138 100.968 243.643 95.4336 232.691 100.156C223.266 104.22 218.27 114.913 221.194 124.752C222.828 130.253 226.519 134.508 231.14 136.991C235.407 139.282 239.068 142.551 241.752 146.581L242.526 147.744L257.871 142.227L257.728 140.844C257.223 135.947 258.079 131.048 259.889 126.47C261.655 122.001 261.865 116.896 260.112 112.02Z" fill="#C3C8FF"/>
<path d="M260.112 112.02C256.138 100.968 243.643 95.4336 232.691 100.156C223.266 104.22 218.27 114.913 221.194 124.752C222.828 130.253 226.519 134.508 231.14 136.991C235.407 139.282 239.068 142.551 241.752 146.581L242.526 147.744L257.871 142.227L257.728 140.844C257.223 135.947 258.079 131.048 259.889 126.47C261.655 122.001 261.865 116.896 260.112 112.02Z" fill="#C3C8FF"/>
<path d="M246.037 143.218L233.805 125.967C233.805 125.967 234.027 122.474 237.867 123.027C241.706 123.581 243.998 129.641 241.259 128.663C238.519 127.686 237.549 120.563 242.734 119.477C247.918 118.391 249.65 130.168 246.786 127.899C243.922 125.63 244.526 118.132 250.077 118.07L253.334 142.951" stroke="white" stroke-miterlimit="10"/>
<path d="M257.515 154.018L250.309 156.609C247.569 157.595 244.549 156.172 243.564 153.432L242.041 149.196C241.055 146.456 242.478 143.435 245.218 142.451L252.424 139.86C255.164 138.874 258.183 140.297 259.169 143.037L260.692 147.274C261.677 150.013 260.255 153.033 257.515 154.018Z" fill="#16005C"/>
<path d="M259.212 136.024L237.511 143.825L241.319 154.419L263.02 146.617L259.212 136.024Z" fill="#6876EB"/>
<path d="M240.316 93.2376L238.151 80.8252" stroke="#C3C8FF" stroke-miterlimit="10"/>
<path d="M224.678 100.631L214.311 90.5049" stroke="#C3C8FF" stroke-miterlimit="10"/>
<path d="M213.873 119.026L202.044 119.872" stroke="#C3C8FF" stroke-miterlimit="10"/>
<path d="M257.366 100.039L262.69 90.1667" stroke="#C3C8FF" stroke-miterlimit="10"/>
<path d="M423.917 191.226H497.265C499.815 191.226 502.258 189.159 502.72 186.607L510.3 144.791C510.762 142.241 509.069 140.173 506.519 140.173H433.17C430.62 140.173 428.177 142.24 427.715 144.791L420.135 186.607C419.674 189.158 421.366 191.226 423.917 191.226Z" fill="#1C145C"/>
<path d="M482.719 168.948C484.86 166.992 485.273 163.958 483.641 162.172C482.009 160.385 478.95 160.522 476.809 162.478C474.668 164.434 474.255 167.467 475.887 169.254C477.519 171.041 480.578 170.904 482.719 168.948Z" fill="white"/>
<path d="M468.15 168.948C470.291 166.992 470.703 163.958 469.071 162.171C467.439 160.385 464.381 160.522 462.24 162.478C460.098 164.433 459.686 167.467 461.318 169.254C462.95 171.041 466.009 170.904 468.15 168.948Z" fill="white"/>
<path d="M453.581 168.948C455.722 166.992 456.135 163.958 454.503 162.171C452.87 160.385 449.812 160.522 447.671 162.477C445.53 164.433 445.117 167.467 446.749 169.254C448.381 171.04 451.44 170.903 453.581 168.948Z" fill="white"/>
<path d="M463.392 188.476L437.906 203.622L442.474 187.281L463.392 188.476Z" fill="#1C145C"/>
<path d="M187.624 185.027H114.276C111.726 185.027 109.283 182.96 108.821 180.409L101.241 138.592C100.779 136.042 102.472 133.974 105.022 133.974H178.371C180.921 133.974 183.363 136.041 183.826 138.592L191.405 180.409C191.868 182.959 190.176 185.027 187.624 185.027Z" fill="#C3C8FF"/>
<path d="M135.618 163.036C137.25 161.249 136.838 158.215 134.697 156.26C132.556 154.304 129.497 154.167 127.865 155.954C126.233 157.74 126.645 160.774 128.786 162.73C130.927 164.686 133.986 164.823 135.618 163.036Z" fill="white"/>
<path d="M150.187 163.036C151.819 161.249 151.407 158.215 149.266 156.26C147.124 154.304 144.066 154.167 142.434 155.954C140.802 157.74 141.214 160.774 143.355 162.73C145.496 164.686 148.555 164.823 150.187 163.036Z" fill="white"/>
<path d="M164.755 163.037C166.387 161.25 165.974 158.216 163.833 156.261C161.692 154.305 158.634 154.168 157.002 155.955C155.369 157.741 155.782 160.775 157.923 162.731C160.064 164.687 163.123 164.824 164.755 163.037Z" fill="white"/>
<path d="M161.459 182.277L165.482 196.898L181.753 181.254L161.459 182.277Z" fill="#C3C8FF"/>
</svg>
